<svg width="65" height="56" viewBox="0 0 65 56" fill="none" xmlns="http://www.w3.org/2000/svg">
<path d="M65 38C65 47.9411 56.9411 56 47 56L20 56C17.2386 56 15 53.7614 15 51L15 17C15 11.4772 19.4772 7 25 7L60 7C62.7614 7 65 9.23858 65 12L65 38Z" fill="#E8F5E9"/>
<path d="M8.17524 19.9201C7.90603 19.9201 7.68 19.8275 7.49714 19.6423C7.31429 19.4584 7.22286 19.2311 7.22286 18.9604C7.22286 18.6884 7.31429 18.4605 7.49714 18.2766C7.68 18.0927 7.90603 18.0014 8.17524 18.0027H14.1105C14.7187 18.0027 15.2616 18.1815 15.739 18.539C16.2165 18.8966 16.553 19.3563 16.7486 19.9181L8.17524 19.9201ZM12.059 37.0826C13.7683 37.0826 15.221 36.4812 16.4171 35.2782C17.6133 34.0753 18.2121 32.6145 18.2133 30.8957C18.2146 29.1769 17.6159 27.716 16.4171 26.5131C15.2184 25.3102 13.7657 24.7081 12.059 24.7068C10.3524 24.7055 8.89905 25.3076 7.69905 26.5131C6.49905 27.7186 5.90095 29.1794 5.90476 30.8957C5.90857 32.6119 6.50667 34.0728 7.69905 35.2782C8.89143 36.4837 10.3448 37.0858 12.059 37.0845M38.2857 37.0845C39.3232 37.0845 40.2178 36.7065 40.9695 35.9506C41.7213 35.1946 42.0965 34.2956 42.0952 33.2536C42.094 32.2116 41.7187 31.312 40.9695 30.5547C40.2203 29.7975 39.3257 29.4201 38.2857 29.4227C37.2457 29.4252 36.3511 29.8026 35.6019 30.5547C34.8527 31.3069 34.4775 32.2065 34.4762 33.2536C34.4749 34.3007 34.8502 35.1997 35.6019 35.9506C36.3537 36.7014 37.2483 37.0794 38.2857 37.0845ZM12.0495 33.0314C11.4578 33.0314 10.9568 32.8233 10.5467 32.407C10.1378 31.9894 9.93333 31.4824 9.93333 30.8861C9.93333 30.2897 10.141 29.7866 10.5562 29.3767C10.9714 28.9668 11.4749 28.7612 12.0667 28.7599C12.6584 28.7586 13.1594 28.9668 13.5695 29.3844C13.9797 29.8019 14.1841 30.3089 14.1829 30.9052C14.1816 31.5016 13.9746 32.0047 13.5619 32.4146C13.1492 32.8245 12.6451 33.0301 12.0495 33.0314ZM39.1657 27.5532C39.5505 27.64 39.8787 27.7332 40.1505 27.8328C40.4222 27.9324 40.7289 28.101 41.0705 28.3385V18.2249C41.0705 17.3731 40.7689 16.6446 40.1657 16.0393C39.5625 15.434 38.8387 15.1308 37.9943 15.1295H28.1905L26.1905 13.0225L28.8571 10.3408L27.5238 9L20.7619 15.7999L22.1905 17.1407L24.8571 14.4591L26.8571 16.4703V19.4029C26.8571 20.8612 26.341 22.1101 25.3086 23.1495C24.2749 24.1877 23.033 24.7068 21.5829 24.7068H17.2495C17.6127 25.0286 17.9067 25.3293 18.1314 25.609C18.3562 25.8886 18.6057 26.227 18.88 26.6242H21.5829C23.5803 26.6242 25.2756 25.9225 26.6686 24.5191C28.0616 23.1157 28.7594 21.4103 28.7619 19.4029V17.0469H37.9924C38.3352 17.0469 38.6159 17.1567 38.8343 17.3763C39.0552 17.5972 39.1657 17.8801 39.1657 18.2249V27.5532ZM32.7276 31.8534C32.8457 31.4575 32.9657 31.1223 33.0876 30.8478C33.2095 30.5732 33.3987 30.2699 33.6552 29.9379H20.0381C20.0927 30.3057 20.12 30.6249 20.12 30.8957C20.12 31.1664 20.0927 31.4856 20.0381 31.8534H32.7276ZM38.2857 38.9981C36.6883 38.9981 35.3365 38.4426 34.2305 37.3316C33.1244 36.2207 32.5714 34.8607 32.5714 33.2517C32.5714 31.6427 33.1244 30.284 34.2305 29.1756C35.3365 28.0672 36.6883 27.511 38.2857 27.5072C39.8832 27.5034 41.2349 28.0589 42.341 29.1737C43.447 30.2885 44 31.6484 44 33.2536C44 34.8588 43.447 36.2181 42.341 37.3316C41.2349 38.4452 39.8832 39.0006 38.2857 38.9981ZM12.0571 38.9981C9.82857 38.9981 7.92826 38.2083 6.35619 36.6287C4.78413 35.049 3.99873 33.138 4 30.8957C4.00127 28.6533 4.7873 26.7423 6.3581 25.1627C7.92889 23.5831 9.82921 22.7926 12.059 22.7913C14.2889 22.7901 16.1892 23.5805 17.76 25.1627C19.3308 26.7449 20.1168 28.6559 20.1181 30.8957C20.1194 33.1355 19.3333 35.0465 17.76 36.6287C16.1867 38.2108 14.2864 39.0013 12.059 39" fill="#103E13"/>
</svg>
