<svg width="65" height="56" viewBox="0 0 65 56" fill="none" xmlns="http://www.w3.org/2000/svg">
<path d="M65 38C65 47.9411 56.9411 56 47 56L20 56C17.2386 56 15 53.7614 15 51L15 17C15 11.4772 19.4772 7 25 7L60 7C62.7614 7 65 9.23858 65 12L65 38Z" fill="#E8F5E9"/>
<g clip-path="url(#clip0_374_90)">
<path d="M20 22.6666H24V25.3333H20V22.6666Z" fill="#103E13"/>
<path d="M35.2667 18.8934C32.902 15.0238 29.676 11.7522 25.84 9.33335C24.0679 8.21021 22.0478 7.53794 19.956 7.37525C17.8643 7.21256 15.7645 7.56439 13.84 8.40002C12.1567 9.19403 10.6919 10.3858 9.57226 11.8726C8.45257 13.3593 7.71161 15.0962 7.41335 16.9334C7.30669 17.56 7.22669 18.16 7.14669 18.7467C5.89835 18.949 4.76252 19.5884 3.94193 20.5506C3.12133 21.5129 2.66936 22.7354 2.66669 24V32.1734C2.66669 32.8806 2.94764 33.5589 3.44774 34.059C3.94783 34.5591 4.62611 34.84 5.33335 34.84V24C5.33335 23.2928 5.61431 22.6145 6.1144 22.1144C6.6145 21.6143 7.29278 21.3334 8.00002 21.3334H32.9734C35.5431 21.3369 38.0066 22.3593 39.8237 24.1764C41.6408 25.9934 42.6632 28.4569 42.6667 31.0267V32H40C39.4369 30.6268 38.3879 29.5091 37.0532 28.86C35.7185 28.2109 34.1915 28.076 32.7637 28.4809C31.3358 28.8858 30.1071 29.8023 29.3118 31.0555C28.5166 32.3086 28.2106 33.8107 28.4522 35.275C28.6939 36.7394 29.4662 38.0635 30.6218 38.9948C31.7775 39.926 33.2355 40.3992 34.7178 40.324C36.2 40.2487 37.6027 39.6304 38.6582 38.587C39.7136 37.5435 40.3479 36.148 40.44 34.6667H42.6667C43.3739 34.6667 44.0522 34.3857 44.5523 33.8856C45.0524 33.3855 45.3334 32.7073 45.3334 32V31.0267C45.328 28.1493 44.3199 25.3637 42.4826 23.1492C40.6453 20.9347 38.0937 19.4298 35.2667 18.8934ZM14.6667 18.6667H9.24002C9.24002 18.2534 9.36002 17.8267 9.44002 17.3334C9.67038 15.8686 10.2715 14.4872 11.1864 13.3203C12.1012 12.1534 13.2993 11.24 14.6667 10.6667V18.6667ZM17.3334 18.6667V10.1067C19.8226 9.78343 22.3472 10.3298 24.48 11.6534C27.3917 13.4669 29.9047 15.8529 31.8667 18.6667H17.3334ZM34.4 37.84C33.7407 37.84 33.0963 37.6445 32.5481 37.2782C32 36.912 31.5727 36.3914 31.3204 35.7823C31.0681 35.1732 31.0021 34.503 31.1307 33.8564C31.2594 33.2098 31.5768 32.6158 32.043 32.1497C32.5092 31.6835 33.1031 31.366 33.7497 31.2374C34.3963 31.1088 35.0665 31.1748 35.6756 31.4271C36.2847 31.6794 36.8053 32.1066 37.1716 32.6548C37.5379 33.2029 37.7334 33.8474 37.7334 34.5067C37.7334 35.3907 37.3822 36.2386 36.757 36.8637C36.1319 37.4888 35.2841 37.84 34.4 37.84Z" fill="#103E13"/>
<path d="M18.8933 32C18.3302 30.6268 17.2812 29.509 15.9465 28.86C14.6118 28.2109 13.0848 28.0759 11.657 28.4809C10.2291 28.8858 9.00036 29.8023 8.20514 31.0555C7.40992 32.3086 7.10393 33.8107 7.34555 35.275C7.58717 36.7394 8.35949 38.0635 9.51513 38.9948C10.6708 39.926 12.1288 40.3992 13.6111 40.324C15.0933 40.2487 16.496 39.6304 17.5515 38.5869C18.6069 37.5435 19.2412 36.148 19.3333 34.6667H26.4V34.3333C26.3736 33.5467 26.4635 32.7604 26.6667 32H18.8933ZM13.3333 37.84C12.674 37.84 12.0296 37.6445 11.4814 37.2782C10.9333 36.912 10.506 36.3914 10.2537 35.7823C10.0014 35.1732 9.93542 34.503 10.064 33.8564C10.1927 33.2098 10.5101 32.6158 10.9763 32.1496C11.4425 31.6835 12.0364 31.366 12.683 31.2374C13.3296 31.1088 13.9998 31.1748 14.6089 31.4271C15.218 31.6794 15.7386 32.1066 16.1049 32.6548C16.4712 33.2029 16.6667 33.8474 16.6667 34.5067C16.6667 35.3907 16.3155 36.2386 15.6903 36.8637C15.0652 37.4888 14.2174 37.84 13.3333 37.84Z" fill="#103E13"/>
</g>
<defs>
<clipPath id="clip0_374_90">
<rect width="48" height="48" fill="white"/>
</clipPath>
</defs>
</svg>
