<svg width="62" height="49" viewBox="0 0 62 49" fill="none" xmlns="http://www.w3.org/2000/svg">
<path d="M62 31C62 40.9411 53.9411 49 44 49L17 49C14.2386 49 12 46.7614 12 44L12 10C12 4.47715 16.4772 -1.65037e-07 22 3.17786e-07L57 3.37758e-06C59.7614 3.61899e-06 62 2.23858 62 5L62 31Z" fill="#E8F5E9"/>
<g clip-path="url(#clip0_376_240)">
<path d="M2.66669 22.2222H29.3334V38.2222H2.66669V22.2222Z" fill="#66757F"/>
<path d="M1.77778 38.2222H30.2222C30.6937 38.2222 31.1459 38.4095 31.4793 38.7429C31.8127 39.0763 32 39.5284 32 39.9999H0C0 39.5284 0.187301 39.0763 0.520699 38.7429C0.854097 38.4095 1.30628 38.2222 1.77778 38.2222Z" fill="#CCD6DD"/>
<path d="M16 28.4445C15.2927 28.4445 14.6145 28.7254 14.1144 29.2255C13.6143 29.7256 13.3333 30.4039 13.3333 31.1111V36.4445H18.6666V31.1111C18.6666 30.4039 18.3857 29.7256 17.8856 29.2255C17.3855 28.7254 16.7072 28.4445 16 28.4445Z" fill="#292F33"/>
<path d="M2.66669 26.6666H6.22224V36.4444H2.66669V26.6666ZM8.00002 26.6666H11.5556V36.4444H8.00002V26.6666ZM25.7778 26.6666H29.3334V36.4444H25.7778V26.6666ZM20.4445 26.6666H24V36.4444H20.4445V26.6666Z" fill="#CCD6DD"/>
<path d="M1.77777 36.4445H30.2222V38.2222H1.77777V36.4445Z" fill="#AAB8C2"/>
<path d="M32 17.7778L16 8L0 17.7778H32Z" fill="#66757F"/>
<path d="M16 10.1333L1.77777 18.6666V22.2222H30.2222V18.6666L16 10.1333Z" fill="#CCD6DD"/>
<path d="M2.66669 24.8889H6.22224V26.6667H2.66669V24.8889ZM8.00002 24.8889H11.5556V26.6667H8.00002V24.8889ZM20.4445 24.8889H24V26.6667H20.4445V24.8889ZM25.7778 24.8889H29.3334V26.6667H25.7778V24.8889Z" fill="#8899A6"/>
<path d="M0.888916 18.6666H31.1111V23.1111H0.888916V18.6666Z" fill="#CCD6DD"/>
<path d="M32 18.6667C32 18.9024 31.9064 19.1285 31.7397 19.2952C31.573 19.4619 31.3469 19.5556 31.1111 19.5556H0.888889C0.653141 19.5556 0.427049 19.4619 0.26035 19.2952C0.0936505 19.1285 0 18.9024 0 18.6667V17.7778C0 17.5421 0.0936505 17.316 0.26035 17.1493C0.427049 16.9826 0.653141 16.8889 0.888889 16.8889H31.1111C31.3469 16.8889 31.573 16.9826 31.7397 17.1493C31.9064 17.316 32 17.5421 32 17.7778V18.6667ZM32 24C32 24.2358 31.9064 24.4619 31.7397 24.6286C31.573 24.7953 31.3469 24.8889 31.1111 24.8889H0.888889C0.653141 24.8889 0.427049 24.7953 0.26035 24.6286C0.0936505 24.4619 0 24.2358 0 24V23.1111C0 22.8754 0.0936505 22.6493 0.26035 22.4826C0.427049 22.3159 0.653141 22.2222 0.888889 22.2222H31.1111C31.3469 22.2222 31.573 22.3159 31.7397 22.4826C31.9064 22.6493 32 22.8754 32 23.1111V24Z" fill="#AAB8C2"/>
<path d="M11.5555 36.4445H20.4444V38.2222H11.5555V36.4445Z" fill="#E1E8ED"/>
<path d="M9.77777 38.2222H22.2222V39.9999H9.77777V38.2222Z" fill="#F5F8FA"/>
</g>
<defs>
<clipPath id="clip0_376_240">
<rect width="32" height="32" fill="white" transform="translate(0 8)"/>
</clipPath>
</defs>
</svg>
