<svg width="65" height="56" viewBox="0 0 65 56" fill="none" xmlns="http://www.w3.org/2000/svg">
<path d="M65 38C65 47.9411 56.9411 56 47 56L20 56C17.2386 56 15 53.7614 15 51L15 17C15 11.4772 19.4772 7 25 7L60 7C62.7614 7 65 9.23858 65 12L65 38Z" fill="#E8F5E9"/>
<path d="M41.86 11.27C42.0134 11.472 42.1078 11.7126 42.1325 11.9651C42.1572 12.2176 42.1113 12.472 42 12.7L39.54 17.61L35.54 13.08L39 10.78C39.4482 10.4779 39.9955 10.3603 40.5282 10.4516C41.0609 10.5428 41.5379 10.8359 41.86 11.27Z" fill="#DAEDF7" stroke="#45413C" stroke-linecap="round" stroke-linejoin="round"/>
<path opacity="0.15" d="M3.02002 42.3C3.02002 42.7508 5.23041 43.1832 9.16492 43.5021C13.0994 43.8209 18.4358 44 24 44C29.5643 44 34.9006 43.8209 38.8351 43.5021C42.7696 43.1832 44.98 42.7508 44.98 42.3C44.98 41.8491 42.7696 41.4167 38.8351 41.0979C34.9006 40.7791 29.5643 40.6 24 40.6C18.4358 40.6 13.0994 40.7791 9.16492 41.0979C5.23041 41.4167 3.02002 41.8491 3.02002 42.3Z" fill="#45413C"/>
<path d="M41.46 23.66L40.96 23.28L39.6 15.38C39.4603 14.7177 39.1007 14.1221 38.5796 13.6901C38.0586 13.258 37.4067 13.0148 36.73 13L25 12.39C22.3581 12.2282 19.7282 12.8608 17.4488 14.2063C15.1694 15.5519 13.3449 17.5488 12.21 19.94L9.94 25C8.3387 24.9571 6.7824 25.5327 5.59432 26.6072C4.40625 27.6817 3.67771 29.1725 3.56 30.77L3.33 35.4C3.32145 35.6754 3.3699 35.9496 3.4723 36.2054C3.5747 36.4612 3.72885 36.6931 3.92509 36.8865C4.12132 37.0799 4.3554 37.2307 4.61265 37.3294C4.86989 37.4281 5.14476 37.4726 5.42 37.46H43C43.3334 37.4712 43.6653 37.41 43.9728 37.2806C44.2803 37.1513 44.5562 36.9569 44.7814 36.7108C45.0066 36.4646 45.1758 36.1727 45.2774 35.8549C45.379 35.5372 45.4106 35.2012 45.37 34.87L44.42 28.58C44.1219 26.6135 43.0578 24.8447 41.46 23.66Z" fill="#FF6242"/>
<path d="M3.55003 33.81C3.64728 32.4531 4.19028 31.1663 5.09454 30.15C5.9988 29.1336 7.21363 28.4445 8.55003 28.19C9.01163 28.0876 9.44248 27.8774 9.80743 27.5768C10.1724 27.2762 10.4611 26.8935 10.65 26.46L12.21 23C13.3445 20.6078 15.1686 18.6095 17.4478 17.2623C19.7271 15.9151 22.3572 15.2805 25 15.44L36.73 16C37.4137 16.0173 38.0711 16.2676 38.593 16.7095C39.115 17.1515 39.4703 17.7585 39.6 18.43L41 26.34L41.5 26.72C42.2994 27.3022 42.9759 28.0365 43.4907 28.8809C44.0055 29.7252 44.3485 30.6628 44.5 31.64L45.2 36.25C45.4345 35.8307 45.5225 35.345 45.45 34.87L44.5 28.58C44.1919 26.6071 43.1128 24.8374 41.5 23.66L41 23.28L39.64 15.38C39.4988 14.7111 39.1333 14.1105 38.604 13.6777C38.0748 13.2449 37.4137 13.0058 36.73 13L25 12.39C22.3581 12.2282 19.7282 12.8608 17.4488 14.2063C15.1694 15.5519 13.3449 17.5488 12.21 19.94L9.94003 25C8.33834 24.9595 6.78223 25.5355 5.59308 26.6093C4.40393 27.6831 3.67256 29.1725 3.55003 30.77L3.33003 35.4C3.3202 35.6416 3.35757 35.8828 3.44003 36.11L3.55003 33.81Z" fill="#FF866E"/>
<path d="M41.46 23.66L40.96 23.28L39.6 15.38C39.4603 14.7177 39.1007 14.1221 38.5796 13.6901C38.0586 13.258 37.4067 13.0148 36.73 13L25 12.39C22.3581 12.2282 19.7282 12.8608 17.4488 14.2063C15.1694 15.5519 13.3449 17.5488 12.21 19.94L9.94 25C8.3387 24.9571 6.7824 25.5327 5.59432 26.6072C4.40625 27.6817 3.67771 29.1725 3.56 30.77L3.33 35.4C3.32145 35.6754 3.3699 35.9496 3.4723 36.2054C3.5747 36.4612 3.72885 36.6931 3.92509 36.8865C4.12132 37.0799 4.3554 37.2307 4.61265 37.3294C4.86989 37.4281 5.14476 37.4726 5.42 37.46H43C43.3334 37.4712 43.6653 37.41 43.9728 37.2806C44.2803 37.1513 44.5562 36.9569 44.7814 36.7108C45.0066 36.4646 45.1758 36.1727 45.2774 35.8549C45.379 35.5372 45.4106 35.2012 45.37 34.87L44.42 28.58C44.1219 26.6135 43.0578 24.8447 41.46 23.66Z" stroke="#45413C" stroke-linecap="round" stroke-linejoin="round"/>
<path d="M8.34003 37.46C8.34003 38.6641 8.81835 39.8189 9.66976 40.6703C10.5212 41.5217 11.6759 42 12.88 42C14.0841 42 15.2389 41.5217 16.0903 40.6703C16.9417 39.8189 17.42 38.6641 17.42 37.46C17.42 36.256 16.9417 35.1012 16.0903 34.2498C15.2389 33.3984 14.0841 32.92 12.88 32.92C11.6759 32.92 10.5212 33.3984 9.66976 34.2498C8.81835 35.1012 8.34003 36.256 8.34003 37.46ZM31.59 37.46C31.59 38.0562 31.7075 38.6466 31.9356 39.1974C32.1638 39.7482 32.4982 40.2487 32.9198 40.6703C33.3413 41.0919 33.8418 41.4263 34.3926 41.6545C34.9435 41.8826 35.5338 42 36.13 42C36.7262 42 37.3166 41.8826 37.8674 41.6545C38.4182 41.4263 38.9187 41.0919 39.3403 40.6703C39.7619 40.2487 40.0963 39.7482 40.3244 39.1974C40.5526 38.6466 40.67 38.0562 40.67 37.46C40.67 36.8638 40.5526 36.2735 40.3244 35.7227C40.0963 35.1718 39.7619 34.6714 39.3403 34.2498C38.9187 33.8282 38.4182 33.4938 37.8674 33.2656C37.3166 33.0375 36.7262 32.92 36.13 32.92C35.5338 32.92 34.9435 33.0375 34.3926 33.2656C33.8418 33.4938 33.3413 33.8282 32.9198 34.2498C32.4982 34.6714 32.1638 35.1718 31.9356 35.7227C31.7075 36.2735 31.59 36.8638 31.59 37.46Z" fill="#87898C"/>
<path d="M12.88 34.91C13.9107 34.9107 14.9104 35.2628 15.714 35.9082C16.5176 36.5536 17.0771 37.4538 17.3 38.46C17.375 38.1318 17.4152 37.7967 17.42 37.46C17.42 36.256 16.9417 35.1012 16.0903 34.2498C15.2389 33.3984 14.0841 32.92 12.88 32.92C11.6759 32.92 10.5212 33.3984 9.66976 34.2498C8.81835 35.1012 8.34003 36.256 8.34003 37.46C8.34485 37.7967 8.38507 38.1318 8.46003 38.46C8.683 37.4538 9.24247 36.5536 10.0461 35.9082C10.8497 35.2628 11.8493 34.9107 12.88 34.91ZM36.13 34.91C37.1607 34.9107 38.1604 35.2628 38.964 35.9082C39.7676 36.5536 40.3271 37.4538 40.55 38.46C40.625 38.1318 40.6652 37.7967 40.67 37.46C40.67 36.256 40.1917 35.1012 39.3403 34.2498C38.4889 33.3984 37.3341 32.92 36.13 32.92C34.9259 32.92 33.7712 33.3984 32.9198 34.2498C32.0683 35.1012 31.59 36.256 31.59 37.46C31.5948 37.7967 31.6351 38.1318 31.71 38.46C31.9347 37.4546 32.4946 36.5555 33.2978 35.9104C34.1011 35.2652 35.0998 34.9125 36.13 34.91Z" fill="#656769"/>
<path d="M8.34003 37.46C8.34003 38.6641 8.81835 39.8189 9.66976 40.6703C10.5212 41.5217 11.6759 42 12.88 42C14.0841 42 15.2389 41.5217 16.0903 40.6703C16.9417 39.8189 17.42 38.6641 17.42 37.46C17.42 36.256 16.9417 35.1012 16.0903 34.2498C15.2389 33.3984 14.0841 32.92 12.88 32.92C11.6759 32.92 10.5212 33.3984 9.66976 34.2498C8.81835 35.1012 8.34003 36.256 8.34003 37.46ZM31.59 37.46C31.59 38.0562 31.7075 38.6466 31.9356 39.1974C32.1638 39.7482 32.4982 40.2487 32.9198 40.6703C33.3413 41.0919 33.8418 41.4263 34.3926 41.6545C34.9435 41.8826 35.5338 42 36.13 42C36.7262 42 37.3166 41.8826 37.8674 41.6545C38.4182 41.4263 38.9187 41.0919 39.3403 40.6703C39.7619 40.2487 40.0963 39.7482 40.3244 39.1974C40.5526 38.6466 40.67 38.0562 40.67 37.46C40.67 36.8638 40.5526 36.2735 40.3244 35.7227C40.0963 35.1718 39.7619 34.6714 39.3403 34.2498C38.9187 33.8282 38.4182 33.4938 37.8674 33.2656C37.3166 33.0375 36.7262 32.92 36.13 32.92C35.5338 32.92 34.9435 33.0375 34.3926 33.2656C33.8418 33.4938 33.3413 33.8282 32.9198 34.2498C32.4982 34.6714 32.1638 35.1718 31.9356 35.7227C31.7075 36.2735 31.59 36.8638 31.59 37.46Z" stroke="#45413C" stroke-linecap="round" stroke-linejoin="round"/>
<path d="M14.72 24C14.7047 24.0545 14.7021 24.1117 14.7124 24.1674C14.7227 24.2231 14.7457 24.2756 14.7795 24.321C14.8133 24.3664 14.8571 24.4034 14.9074 24.4293C14.9578 24.4551 15.0134 24.469 15.07 24.47H32.16C32.4624 24.47 32.7523 24.3499 32.9661 24.1361C33.1799 23.9223 33.3 23.6323 33.3 23.33V17C33.3006 16.712 33.1912 16.4347 32.9942 16.2247C32.7972 16.0147 32.5274 15.8878 32.24 15.87L27 15.46C24.2841 15.2587 21.5815 15.9975 19.3457 17.5524C17.1098 19.1073 15.4766 21.3838 14.72 24Z" fill="#00B8F0"/>
<path d="M28.53 15.57L27 15.46C24.2841 15.2587 21.5815 15.9975 19.3457 17.5524C17.1098 19.1073 15.4766 21.3838 14.72 24C14.7047 24.0545 14.7021 24.1117 14.7124 24.1674C14.7227 24.2231 14.7457 24.2756 14.7795 24.321C14.8133 24.3664 14.8571 24.4034 14.9074 24.4293C14.9578 24.4551 15.0134 24.469 15.07 24.47H23.5L28.53 15.57Z" fill="#4ACFFF"/>
<path d="M14.72 24C14.7047 24.0545 14.7021 24.1117 14.7124 24.1674C14.7227 24.2231 14.7457 24.2756 14.7795 24.321C14.8133 24.3664 14.8571 24.4034 14.9074 24.4293C14.9578 24.4551 15.0134 24.469 15.07 24.47H32.16C32.4624 24.47 32.7523 24.3499 32.9661 24.1361C33.1799 23.9223 33.3 23.6323 33.3 23.33V17C33.3006 16.712 33.1912 16.4347 32.9942 16.2247C32.7972 16.0147 32.5274 15.8878 32.24 15.87L27 15.46C24.2841 15.2587 21.5815 15.9975 19.3457 17.5524C17.1098 19.1073 15.4766 21.3838 14.72 24Z" stroke="#45413C" stroke-linecap="round" stroke-linejoin="round"/>
<path d="M29.89 27.25H26.49C26.2074 27.2766 25.9448 27.4076 25.7537 27.6175C25.5626 27.8274 25.4567 28.1011 25.4567 28.385C25.4567 28.6689 25.5626 28.9425 25.7537 29.1525C25.9448 29.3624 26.2074 29.4934 26.49 29.52H29.89C30.048 29.5348 30.2074 29.5165 30.3579 29.4662C30.5084 29.416 30.6468 29.3348 30.7641 29.228C30.8815 29.1211 30.9752 28.991 31.0394 28.8458C31.1035 28.7006 31.1367 28.5437 31.1367 28.385C31.1367 28.2263 31.1035 28.0693 31.0394 27.9242C30.9752 27.779 30.8815 27.6489 30.7641 27.542C30.6468 27.4352 30.5084 27.354 30.3579 27.3037C30.2074 27.2535 30.048 27.2351 29.89 27.25Z" fill="#BDBEC0" stroke="#45413C" stroke-linecap="round" stroke-linejoin="round"/>
<path d="M6.64002 30.66H3.56002V30.76L3.40002 34.06H6.26002C6.4991 34.0596 6.73201 33.9841 6.92582 33.8441C7.11963 33.7042 7.26453 33.5068 7.34002 33.28L7.72002 32.15C7.77507 31.9793 7.7891 31.7981 7.76096 31.6211C7.73283 31.444 7.66333 31.2761 7.55812 31.1309C7.4529 30.9858 7.31492 30.8675 7.1554 30.7856C6.99588 30.7038 6.81931 30.6607 6.64002 30.66ZM44.68 30.09H42.94C42.4892 30.09 42.0568 30.2691 41.7379 30.5879C41.4191 30.9067 41.24 31.3391 41.24 31.79C41.24 32.2408 41.4191 32.6732 41.7379 32.992C42.0568 33.3109 42.4892 33.49 42.94 33.49H45.19L44.68 30.09Z" fill="#FFE500" stroke="#45413C" stroke-linecap="round" stroke-linejoin="round"/>
<path d="M15.15 33.54V28.39M36.13 32.93V29.3C36.1295 28.6711 35.9742 28.052 35.6777 27.4974C35.3812 26.9428 34.9527 26.4697 34.43 26.12" stroke="#45413C" stroke-linecap="round" stroke-linejoin="round"/>
<path d="M11.18 37.46C11.18 37.6833 11.224 37.9043 11.3094 38.1106C11.3948 38.3168 11.5201 38.5042 11.6779 38.6621C11.8358 38.82 12.0232 38.9452 12.2294 39.0306C12.4357 39.116 12.6567 39.16 12.88 39.16C13.1032 39.16 13.3243 39.116 13.5306 39.0306C13.7368 38.9452 13.9242 38.82 14.0821 38.6621C14.2399 38.5042 14.3652 38.3168 14.4506 38.1106C14.536 37.9043 14.58 37.6833 14.58 37.46C14.58 37.2368 14.536 37.0157 14.4506 36.8094C14.3652 36.6032 14.2399 36.4158 14.0821 36.2579C13.9242 36.1001 13.7368 35.9748 13.5306 35.8894C13.3243 35.804 13.1032 35.76 12.88 35.76C12.6567 35.76 12.4357 35.804 12.2294 35.8894C12.0232 35.9748 11.8358 36.1001 11.6779 36.2579C11.5201 36.4158 11.3948 36.6032 11.3094 36.8094C11.224 37.0157 11.18 37.2368 11.18 37.46ZM34.43 37.46C34.43 37.9109 34.6091 38.3433 34.9279 38.6621C35.2467 38.9809 35.6791 39.16 36.13 39.16C36.5809 39.16 37.0133 38.9809 37.3321 38.6621C37.6509 38.3433 37.83 37.9109 37.83 37.46C37.83 37.0091 37.6509 36.5767 37.3321 36.2579C37.0133 35.9391 36.5809 35.76 36.13 35.76C35.6791 35.76 35.2467 35.9391 34.9279 36.2579C34.6091 36.5767 34.43 37.0091 34.43 37.46Z" fill="#DAEDF7" stroke="#45413C" stroke-linecap="round" stroke-linejoin="round"/>
</svg>
