<svg width="65" height="49" viewBox="0 0 65 49" fill="none" xmlns="http://www.w3.org/2000/svg">
<path d="M65 31C65 40.9411 56.9411 49 47 49L20 49C17.2386 49 15 46.7614 15 44L15 10C15 4.47715 19.4772 -1.65037e-07 25 3.17786e-07L60 3.37758e-06C62.7614 3.61899e-06 65 2.23858 65 5L65 31Z" fill="#E8F5E9"/>
<path opacity="0.15" d="M1.51874 36.4844C1.51874 36.6593 2.06143 36.8326 3.11584 36.9943C4.17025 37.1559 5.71571 37.3028 7.664 37.4266C9.61229 37.5503 11.9252 37.6485 14.4708 37.7154C17.0164 37.7824 19.7447 37.8169 22.5 37.8169C25.2553 37.8169 27.9836 37.7824 30.5292 37.7154C33.0747 37.6485 35.3877 37.5503 37.336 37.4266C39.2843 37.3028 40.8297 37.1559 41.8841 36.9943C42.9385 36.8326 43.4812 36.6593 43.4812 36.4844C43.4812 36.131 41.2707 35.792 37.336 35.5421C33.4012 35.2922 28.0646 35.1519 22.5 35.1519C16.9354 35.1519 11.5988 35.2922 7.664 35.5421C3.72926 35.792 1.51874 36.131 1.51874 36.4844Z" fill="#45413C"/>
<path d="M2.88751 31.1056H42.1125V33.99C42.1125 34.4597 41.8972 34.9103 41.5139 35.2424C41.1306 35.5746 40.6108 35.7612 40.0688 35.7612H4.93126C4.38923 35.7612 3.86939 35.5746 3.48611 35.2424C3.10284 34.9103 2.88751 34.4597 2.88751 33.99V31.1056Z" fill="#E4FFD1" stroke="#45413C" stroke-linecap="round" stroke-linejoin="round"/>
<path d="M2.88751 28.7819H42.1125V31.6662C42.1125 32.136 41.8972 32.5865 41.5139 32.9187C41.1306 33.2509 40.6108 33.4375 40.0688 33.4375H4.93126C4.38923 33.4375 3.86939 33.2509 3.48611 32.9187C3.10284 32.5865 2.88751 32.136 2.88751 31.6662V28.7819Z" fill="#E4FFD1" stroke="#45413C" stroke-linecap="round" stroke-linejoin="round"/>
<path d="M17.2594 31.1056H27.7407V36.1512C27.7407 36.2697 27.6863 36.3834 27.5896 36.4672C27.4929 36.551 27.3618 36.5981 27.225 36.5981H17.8125C17.6758 36.5981 17.5446 36.551 17.4479 36.4672C17.3512 36.3834 17.2969 36.2697 17.2969 36.1512V31.1056H17.2594Z" fill="#DEBB7E" stroke="#45413C" stroke-linecap="round" stroke-linejoin="round"/>
<path d="M2.88751 12.7756H42.1125V31.1056H2.88751V12.7756Z" fill="#F0FFE5"/>
<path d="M40.0688 12.7756H4.93126C4.38837 12.7778 3.86855 12.9662 3.48554 13.2997C3.10253 13.6331 2.88751 14.0845 2.88751 14.555V17.6263C2.88998 17.1572 3.10609 16.7079 3.48884 16.3762C3.87158 16.0444 4.38999 15.8571 4.93126 15.855H40.0688C40.61 15.8571 41.1284 16.0444 41.5112 16.3762C41.8939 16.7079 42.11 17.1572 42.1125 17.6263V14.555C42.1125 14.0845 41.8975 13.6331 41.5145 13.2997C41.1315 12.9662 40.6117 12.7778 40.0688 12.7756Z" fill="white"/>
<path d="M2.88751 12.7756H42.1125V31.1056H2.88751V12.7756Z" stroke="#45413C" stroke-linecap="round" stroke-linejoin="round"/>
<path d="M17.8125 11.9062H27.1875C27.2552 11.9062 27.3223 11.9178 27.3848 11.9402C27.4474 11.9627 27.5042 11.9956 27.5521 12.0371C27.6 12.0786 27.638 12.1279 27.6639 12.1821C27.6898 12.2363 27.7031 12.2944 27.7031 12.3531V31.1056H17.2594V12.3125C17.2713 12.1953 17.3361 12.0869 17.4397 12.0109C17.5432 11.9348 17.6772 11.8972 17.8125 11.9062Z" fill="#F0D5A8"/>
<path d="M27.2344 11.9062H17.8125C17.7452 11.9062 17.6786 11.9178 17.6166 11.9403C17.5545 11.9629 17.4983 11.996 17.4512 12.0376C17.404 12.0792 17.3669 12.1285 17.3421 12.1827C17.3172 12.2368 17.305 12.2948 17.3062 12.3531V15.0912C17.3062 14.9748 17.3596 14.8632 17.4545 14.7809C17.5495 14.6987 17.6782 14.6524 17.8125 14.6524H27.2812C27.4155 14.6524 27.5443 14.6987 27.6392 14.7809C27.7342 14.8632 27.7875 14.9748 27.7875 15.0912V12.3531C27.7891 12.2912 27.7756 12.2297 27.7479 12.1727C27.7202 12.1156 27.6788 12.0643 27.6266 12.0221C27.5743 11.9799 27.5124 11.9478 27.4448 11.9278C27.3772 11.9078 27.3055 11.9004 27.2344 11.9062Z" fill="#F7E5C6"/>
<path d="M17.8125 11.9062H27.1875C27.2552 11.9062 27.3223 11.9178 27.3848 11.9402C27.4474 11.9627 27.5042 11.9956 27.5521 12.0371C27.6 12.0786 27.638 12.1279 27.6639 12.1821C27.6898 12.2363 27.7031 12.2944 27.7031 12.3531V31.1056H17.2594V12.3125C17.2713 12.1953 17.3361 12.0869 17.4397 12.0109C17.5432 11.9348 17.6772 11.8972 17.8125 11.9062Z" stroke="#45413C" stroke-linecap="round" stroke-linejoin="round"/>
<path d="M27.7406 15.92H37.1625C37.2967 15.92 37.4296 15.943 37.5535 15.9875C37.6775 16.032 37.7902 16.0972 37.8851 16.1794C37.98 16.2617 38.0552 16.3593 38.1066 16.4668C38.1579 16.5742 38.1844 16.6894 38.1844 16.8057V27.0757C38.1844 27.192 38.1579 27.3071 38.1066 27.4146C38.0552 27.522 37.98 27.6197 37.8851 27.7019C37.7902 27.7841 37.6775 27.8494 37.5535 27.8939C37.4296 27.9384 37.2967 27.9613 37.1625 27.9613H27.7406V15.92ZM17.2594 27.9613H7.83749C7.56647 27.9613 7.30655 27.868 7.11491 27.7019C6.92327 27.5358 6.81561 27.3106 6.81561 27.0757V16.8057C6.81561 16.5708 6.92327 16.3455 7.11491 16.1794C7.30655 16.0134 7.56647 15.92 7.83749 15.92H17.2594V27.9613Z" fill="#C8FFA1" stroke="#45413C" stroke-linecap="round" stroke-linejoin="round"/>
<path d="M11.6719 23.9394V22.5906L10.9969 22.4038C10.7532 22.3336 10.5203 22.2381 10.3031 22.1194C10.1076 22.0053 9.94679 21.852 9.83437 21.6725C9.71215 21.4609 9.65102 21.2267 9.65624 20.99C9.65123 20.6762 9.74524 20.3672 9.92812 20.0963C10.1032 19.8335 10.3514 19.6129 10.65 19.4544C10.9643 19.298 11.3119 19.1985 11.6719 19.1619V18.9263C11.6659 18.8559 11.6659 18.7853 11.6719 18.715C11.6778 18.6693 11.7009 18.6265 11.7375 18.5931C11.7875 18.5578 11.8512 18.5404 11.9156 18.5444C12.0281 18.5444 12.1031 18.5444 12.1219 18.6338C12.158 18.728 12.1739 18.8271 12.1687 18.9263V19.17C12.549 19.1831 12.9236 19.2547 13.275 19.3813C13.4216 19.4198 13.5507 19.4967 13.6448 19.6015C13.7388 19.7062 13.793 19.8337 13.8 19.9663C13.8046 20.1226 13.7447 20.2753 13.6312 20.3969C13.5748 20.4517 13.5053 20.4952 13.4277 20.5247C13.35 20.5541 13.266 20.5687 13.1812 20.5675C13.0107 20.5579 12.843 20.525 12.6844 20.47C12.5175 20.4148 12.3448 20.374 12.1687 20.3481V21.4288C12.5346 21.5151 12.892 21.6265 13.2375 21.7619C13.5675 21.884 13.8457 22.0917 14.0338 22.3566C14.2218 22.6214 14.3105 22.9303 14.2875 23.2406C14.2944 23.4914 14.2401 23.7406 14.1281 23.9719C14.0225 24.1872 13.8661 24.381 13.6687 24.5406C13.4695 24.7053 13.2377 24.8374 12.9844 24.9306C12.7229 25.0198 12.4484 25.0773 12.1687 25.1013V25.5563C12.1615 25.6057 12.1351 25.6516 12.0937 25.6863C12.0714 25.705 12.0449 25.7196 12.016 25.7294C11.987 25.7392 11.9561 25.7438 11.925 25.7431C11.8125 25.7431 11.7375 25.7431 11.7094 25.6456C11.6915 25.5515 11.6915 25.4554 11.7094 25.3613V25.1094C11.3941 25.1015 11.0803 25.0688 10.7719 25.0119C10.4895 24.9701 10.2208 24.8758 9.98437 24.7356C9.88313 24.6803 9.79987 24.6035 9.74245 24.5125C9.68503 24.4215 9.65536 24.3194 9.65624 24.2156C9.64969 24.0664 9.71018 23.9208 9.82499 23.8094C9.88023 23.7533 9.94942 23.7088 10.0274 23.6793C10.1053 23.6497 10.19 23.6359 10.275 23.6388C10.5104 23.6571 10.7411 23.7064 10.9594 23.785C11.1905 23.8566 11.4291 23.9083 11.6719 23.9394ZM11.6719 21.2744V20.3481C11.5362 20.3778 11.4128 20.4397 11.3156 20.5269C11.2233 20.6128 11.1729 20.7264 11.175 20.8438C11.1731 20.8897 11.1831 20.9354 11.2041 20.9776C11.2252 21.0198 11.2569 21.0573 11.2969 21.0875C11.4103 21.1598 11.5371 21.2147 11.6719 21.25V21.2744ZM12.1875 22.7206V23.9069C12.3614 23.8749 12.5171 23.7916 12.6281 23.6713C12.7389 23.5547 12.7986 23.4079 12.7969 23.2569C12.7875 23.0213 12.5812 22.875 12.1875 22.7206Z" fill="#45413C"/>
<path d="M35.2031 21.9407C35.2031 22.3247 35.0717 22.7002 34.8255 23.0195C34.5793 23.3388 34.2294 23.5877 33.8199 23.7347C33.4105 23.8817 32.96 23.9201 32.5254 23.8452C32.0907 23.7703 31.6915 23.5853 31.3781 23.3138C31.0648 23.0422 30.8514 22.6962 30.7649 22.3195C30.6785 21.9428 30.7228 21.5524 30.8924 21.1975C31.062 20.8427 31.3492 20.5394 31.7177 20.326C32.0861 20.1127 32.5193 19.9988 32.9625 19.9988C33.5567 19.9988 34.1267 20.2034 34.5469 20.5675C34.9671 20.9317 35.2031 21.4256 35.2031 21.9407Z" fill="#6DD627" stroke="#45413C" stroke-linecap="round" stroke-linejoin="round"/>
</svg>
