<svg width="62" height="49" viewBox="0 0 62 49" fill="none" xmlns="http://www.w3.org/2000/svg">
<path d="M62 31C62 40.9411 53.9411 49 44 49L17 49C14.2386 49 12 46.7614 12 44L12 10C12 4.47715 16.4772 -1.65037e-07 22 3.17786e-07L57 3.37758e-06C59.7614 3.61899e-06 62 2.23858 62 5L62 31Z" fill="#E8F5E9"/>
<path d="M10.38 37.104L23.28 38.094C23.8129 38.0948 24.3386 37.9703 24.8145 37.7306C25.2905 37.4909 25.7034 37.1427 26.02 36.714L29.2 32.414C29.76 31.644 29.98 30.674 29.79 29.744L29.285 27.181L28.12 26.344L27.785 23.644L28.481 23.101L28.45 22.944C28.29 22.124 27.84 21.394 27.17 20.894L23.38 17.524L21 13.124L18.1 12.964L13.04 11.124L6.38002 18.164L4.77002 21.774L4.51002 22.354L2.85002 25.424C2.68002 25.724 2.87002 28.504 2.81002 28.844C2.81002 28.844 9.76002 37.104 10.38 37.104Z" fill="#9B9B9B"/>
<path d="M20 18.104L15.95 29.244L25.66 31.944L29.29 27.174L28.48 23.104L20 18.104Z" fill="#E6E6E6"/>
<path d="M2.51 26.3941L2 30.1041H5L5.79 26.9741C5.92 26.4141 6.27 25.9441 6.76 25.6441L11 23.1041L7.95 16.4441L6.57 17.9541C6.44 18.0941 6.34 18.2541 6.26 18.4341L4.51 22.3641L2.85 25.4341C2.68 25.7341 2.57 26.0541 2.51 26.3941Z" fill="#636363"/>
<path d="M11.51 28.614L16 33.104L25.66 31.944L18.18 28.544C17.52 28.244 17.18 27.494 17.39 26.794L20 18.104L21 13.124C20.16 11.784 19.77 11.404 18.33 10.934C17.37 10.594 16.54 10.304 16.54 10.304C16.54 10.304 16 10.074 15.42 10.014C14.69 9.95404 14.22 10.084 13.6 10.554L11 23.104V27.384C11 27.844 11.18 28.284 11.51 28.614Z" fill="#D3D3D3"/>
<path d="M2 30.104H5L16 33.104V38.094L11.75 38.104C10.6 38.104 9.47 37.844 8.44 37.324L7.07 36.644C6.36206 36.2917 5.7168 35.8255 5.16 35.264L4.23 34.334C3.41943 33.5266 2.80975 32.5401 2.45 31.454L2 30.104Z" fill="#636363"/>
<path d="M29.98 30.914C30.1 31.574 29.92 32.254 29.47 32.764L25.5 37.284C25.09 37.754 24.33 38.094 23.71 38.104H16V33.104L25.66 31.944L29.28 27.174L29.98 30.914ZM17.51 12.434L16.4 10.864C16.24 10.6382 16.0322 10.4505 15.7914 10.3142C15.5505 10.1778 15.2826 10.0963 15.0067 10.0753C14.7308 10.0543 14.4536 10.0943 14.1949 10.1926C13.9362 10.2909 13.7024 10.445 13.51 10.644L6.75003 17.684C6.10003 18.364 6.22003 19.474 7.00003 19.994L11 23.104L15.63 18.894C16.18 18.394 16.58 17.754 16.79 17.034L17.74 13.784C17.87 13.324 17.79 12.824 17.51 12.434Z" fill="#9B9B9B"/>
</svg>
