<svg width="64" height="49" viewBox="0 0 64 49" fill="none" xmlns="http://www.w3.org/2000/svg">
<path d="M64 31C64 40.9411 55.9411 49 46 49L19 49C16.2386 49 14 46.7614 14 44L14 10C14 4.47715 18.4772 -1.65037e-07 24 3.17786e-07L59 3.37758e-06C61.7614 3.61899e-06 64 2.23858 64 5L64 31Z" fill="#E8F5E9"/>
<path opacity="0.15" d="M5.5094 39.0281C5.5094 39.4019 7.08876 39.7604 9.90005 40.0247C12.7113 40.289 16.5243 40.4375 20.5 40.4375C24.4758 40.4375 28.2887 40.289 31.1 40.0247C33.9113 39.7604 35.4906 39.4019 35.4906 39.0281C35.4906 38.6544 33.9113 38.2959 31.1 38.0316C28.2887 37.7673 24.4758 37.6188 20.5 37.6188C16.5243 37.6188 12.7113 37.7673 9.90005 38.0316C7.08876 38.2959 5.5094 38.6544 5.5094 39.0281Z" fill="#45413C"/>
<path d="M26.0521 33.3223H3.27148L2.6394 22.9954C2.58289 22.0328 2.87847 21.0826 3.47098 20.3219C4.0635 19.5612 4.9125 19.042 5.85961 18.8612L26.0521 15.0602V33.3223Z" fill="#FFE500"/>
<path d="M5.85961 18.8612C4.9125 19.042 4.0635 19.5612 3.47098 20.3219C2.87847 21.0826 2.58289 22.0328 2.6394 22.9954L2.71627 24.2083C2.87766 23.4416 3.26221 22.7398 3.82153 22.1911C4.38084 21.6424 5.08994 21.2714 5.85961 21.1248L26.0521 17.375V15.0602L5.85961 18.8612Z" fill="#FFF48C"/>
<path d="M26.0521 33.3223H3.27148L2.6394 22.9954C2.58289 22.0328 2.87847 21.0826 3.47098 20.3219C4.0635 19.5612 4.9125 19.042 5.85961 18.8612L26.0521 15.0602V33.3223Z" stroke="#45413C" stroke-linecap="round" stroke-linejoin="round"/>
<path d="M2.28064 32.8611C2.28064 34.3041 2.85389 35.6881 3.87428 36.7085C4.89468 37.7289 6.27863 38.3021 7.72168 38.3021C9.16473 38.3021 10.5487 37.7289 11.5691 36.7085C12.5895 35.6881 13.1627 34.3041 13.1627 32.8611C13.1627 31.418 12.5895 30.0341 11.5691 29.0137C10.5487 27.9933 9.16473 27.42 7.72168 27.42C6.27863 27.42 4.89468 27.9933 3.87428 29.0137C2.85389 30.0341 2.28064 31.418 2.28064 32.8611Z" fill="#656769"/>
<path d="M7.68748 29.2479C8.97315 29.2475 10.2176 29.7016 11.2008 30.5301C12.1839 31.3585 12.8426 32.5079 13.0602 33.775C13.1073 33.4725 13.133 33.1671 13.1371 32.861C13.1659 32.09 13.0306 31.3216 12.7402 30.6067C12.4498 29.8918 12.011 29.2468 11.4526 28.7142C10.8943 28.1816 10.2292 27.7737 9.50143 27.5174C8.77364 27.2611 7.99973 27.1623 7.23089 27.2275C6.46205 27.2927 5.71581 27.5204 5.04156 27.8956C4.36732 28.2707 3.78042 28.7848 3.31972 29.4038C2.85901 30.0227 2.535 30.7325 2.36912 31.486C2.20324 32.2396 2.19928 33.0198 2.35748 33.775C2.57227 32.5143 3.22421 31.3696 4.1989 30.5418C5.17358 29.7139 6.4087 29.2558 7.68748 29.2479Z" fill="#87898C"/>
<path d="M2.28064 32.8611C2.28064 34.3041 2.85389 35.6881 3.87428 36.7085C4.89468 37.7289 6.27863 38.3021 7.72168 38.3021C9.16473 38.3021 10.5487 37.7289 11.5691 36.7085C12.5895 35.6881 13.1627 34.3041 13.1627 32.8611C13.1627 31.418 12.5895 30.0341 11.5691 29.0137C10.5487 27.9933 9.16473 27.42 7.72168 27.42C6.27863 27.42 4.89468 27.9933 3.87428 29.0137C2.85389 30.0341 2.28064 31.418 2.28064 32.8611Z" stroke="#45413C" stroke-linecap="round" stroke-linejoin="round"/>
<path d="M9.8486 32.861C9.84854 33.2802 9.72462 33.6901 9.49239 34.039C9.26016 34.388 8.92999 34.6606 8.54334 34.8225C8.15669 34.9845 7.73081 35.0285 7.3192 34.9492C6.90758 34.8699 6.52859 34.6707 6.22983 34.3766C5.93106 34.0826 5.72585 33.7068 5.63997 33.2965C5.55408 32.8862 5.59136 32.4597 5.74711 32.0705C5.90286 31.6813 6.17014 31.3469 6.51538 31.1091C6.86062 30.8713 7.26842 30.7409 7.68756 30.7342C7.96972 30.7296 8.24997 30.7813 8.51197 30.8861C8.77397 30.991 9.01249 31.1469 9.21362 31.3449C9.41475 31.5429 9.57448 31.7789 9.6835 32.0391C9.79251 32.2994 9.84864 32.5788 9.8486 32.861Z" fill="#DAEDF7"/>
<path d="M7.68755 32.1777C8.13342 32.1712 8.56995 32.3056 8.93497 32.5618C9.29999 32.8179 9.57487 33.1827 9.72047 33.6041C9.8024 33.3737 9.84569 33.1312 9.84859 32.8866C9.84859 32.3203 9.62361 31.7771 9.22314 31.3767C8.82267 30.9762 8.27952 30.7512 7.71318 30.7512C7.14683 30.7512 6.60368 30.9762 6.20321 31.3767C5.80274 31.7771 5.57776 32.3203 5.57776 32.8866C5.58614 33.1322 5.63521 33.3746 5.72297 33.6041C5.86579 33.1943 6.13056 32.838 6.48173 32.5831C6.8329 32.3281 7.25367 32.1866 7.68755 32.1777Z" fill="#C0DCEB"/>
<path d="M9.8486 32.861C9.84854 33.2802 9.72462 33.6901 9.49239 34.039C9.26016 34.388 8.92999 34.6606 8.54334 34.8225C8.15669 34.9845 7.73081 35.0285 7.3192 34.9492C6.90758 34.8699 6.52859 34.6707 6.22983 34.3766C5.93106 34.0826 5.72585 33.7068 5.63997 33.2965C5.55408 32.8862 5.59136 32.4597 5.74711 32.0705C5.90286 31.6813 6.17014 31.3469 6.51538 31.1091C6.86062 30.8713 7.26842 30.7409 7.68756 30.7342C7.96972 30.7296 8.24997 30.7813 8.51197 30.8861C8.77397 30.991 9.01249 31.1469 9.21362 31.3449C9.41475 31.5429 9.57448 31.7789 9.6835 32.0391C9.79251 32.2994 9.84864 32.5788 9.8486 32.861Z" stroke="#45413C" stroke-linecap="round" stroke-linejoin="round"/>
<path d="M5.47526 21.0906L2.91276 21.381C2.72093 21.8965 2.63945 22.4464 2.67359 22.9954L2.78464 24.7891L5.27026 24.5072C5.61061 24.4615 5.92254 24.293 6.14745 24.0335C6.37236 23.774 6.49478 23.4413 6.49172 23.0979V21.996C6.49269 21.8671 6.46615 21.7396 6.41387 21.6218C6.36159 21.504 6.28478 21.3988 6.18856 21.3131C6.09234 21.2274 5.97894 21.1632 5.85593 21.1248C5.73292 21.0864 5.60314 21.0748 5.47526 21.0906Z" fill="#FF8A14" stroke="#45413C" stroke-linecap="round" stroke-linejoin="round"/>
<path d="M8.84059 21.5861V23.1406C8.841 23.2724 8.86913 23.4027 8.92315 23.5229C8.97717 23.6431 9.05588 23.7506 9.15416 23.8384C9.25244 23.9262 9.36809 23.9923 9.4936 24.0325C9.61911 24.0727 9.75167 24.0861 9.88267 24.0717L17.5018 23.1663V19.3225L9.61788 20.6636C9.39991 20.7 9.20203 20.8129 9.05962 20.9819C8.91722 21.1509 8.83958 21.3651 8.84059 21.5861Z" fill="#87898C" stroke="#45413C" stroke-linecap="round" stroke-linejoin="round"/>
<path d="M31.5187 8.26953H18.3475C15.1039 14.6769 13.8685 21.9137 14.8027 29.0343L15.3579 33.3052H32.8256L31.5187 8.26953Z" fill="#87898C"/>
<path d="M31.5187 8.26953H18.3475C15.1039 14.6769 13.8685 21.9137 14.8027 29.0343L15.3579 33.3052H32.8256L31.5187 8.26953Z" fill="#87898C"/>
<path d="M31.6042 10.4049L31.4931 8.26953H18.3475C17.9888 8.96995 17.6556 9.68745 17.3567 10.4049H31.6042Z" fill="#656769"/>
<path d="M31.5187 8.26953H18.3475C15.1039 14.6769 13.8685 21.9137 14.8027 29.0343L15.3579 33.3052H32.8256L31.5187 8.26953Z" stroke="#45413C" stroke-linecap="round" stroke-linejoin="round"/>
<path d="M17.5018 7.68871C17.5934 7.31834 17.8063 6.98928 18.1066 6.75398C18.4069 6.51868 18.7774 6.39068 19.1589 6.39038H30.5706C30.9521 6.39068 31.3225 6.51868 31.6229 6.75398C31.9232 6.98928 32.1361 7.31834 32.2277 7.68871C32.2444 7.75753 32.2454 7.82924 32.2305 7.89849C32.2156 7.96773 32.1853 8.03271 32.1417 8.08857C32.0982 8.14443 32.0426 8.18973 31.9791 8.22107C31.9156 8.25241 31.8458 8.26898 31.775 8.26955H17.9375C17.8681 8.26648 17.8003 8.24808 17.7389 8.21567C17.6775 8.18325 17.624 8.13763 17.5824 8.08209C17.5407 8.02655 17.5119 7.96246 17.4979 7.89444C17.484 7.82642 17.4853 7.75616 17.5018 7.68871Z" fill="#FFE500" stroke="#45413C" stroke-linecap="round" stroke-linejoin="round"/>
<path d="M28.5634 10.3708H20.5001C20.3186 10.3681 20.1406 10.4195 19.9884 10.5184C19.8363 10.6173 19.7171 10.7592 19.6459 10.926C18.6196 13.2175 17.8491 15.6151 17.3482 18.0754C16.9829 20.0188 16.797 21.9917 16.793 23.9692C16.7974 24.2154 16.8984 24.45 17.0741 24.6225C17.2499 24.7951 17.4863 24.8917 17.7326 24.8917H28.9734C29.0975 24.8894 29.22 24.8627 29.3337 24.8128C29.4474 24.763 29.5501 24.6912 29.6359 24.6014C29.7217 24.5117 29.7888 24.4058 29.8334 24.29C29.8781 24.1741 29.8993 24.0506 29.8959 23.9265L29.4859 11.2848C29.4793 11.043 29.3798 10.813 29.2079 10.6428C29.0361 10.4726 28.8052 10.3751 28.5634 10.3708Z" fill="#00B8F0"/>
<path d="M20.5001 10.3708C20.3186 10.3681 20.1406 10.4195 19.9884 10.5184C19.8363 10.6173 19.7171 10.7592 19.6459 10.926C18.6196 13.2175 17.8491 15.6151 17.3482 18.0754C16.9829 20.0188 16.797 21.9917 16.793 23.9692C16.7974 24.2154 16.8984 24.45 17.0741 24.6225C17.2499 24.7951 17.4863 24.8917 17.7326 24.8917H18.7234L25.8471 10.3708H20.5001Z" fill="#4ACFFF"/>
<path d="M28.5634 10.3708H20.5001C20.3186 10.3681 20.1406 10.4195 19.9884 10.5184C19.8363 10.6173 19.7171 10.7592 19.6459 10.926C18.6196 13.2175 17.8491 15.6151 17.3482 18.0754C16.9829 20.0188 16.797 21.9917 16.793 23.9692C16.7974 24.2154 16.8984 24.45 17.0741 24.6225C17.2499 24.7951 17.4863 24.8917 17.7326 24.8917H28.9734C29.0975 24.8894 29.22 24.8627 29.3337 24.8128C29.4474 24.763 29.5501 24.6912 29.6359 24.6014C29.7217 24.5117 29.7888 24.4058 29.8334 24.29C29.8781 24.1741 29.8993 24.0506 29.8959 23.9265L29.4859 11.2848C29.4793 11.043 29.3798 10.813 29.2079 10.6428C29.0361 10.4726 28.8052 10.3751 28.5634 10.3708Z" stroke="#45413C" stroke-linecap="round" stroke-linejoin="round"/>
<path d="M21.3542 24.3707L29.4346 28.9917L37.3869 24.1571C37.676 23.1863 37.6331 22.1467 37.2649 21.203C36.8966 20.2592 36.2242 19.4653 35.354 18.9467C33.6414 17.9426 31.7013 17.3914 29.7166 17.3451C27.7319 17.2988 25.7682 17.7589 24.0106 18.6819C23.0125 19.2156 22.2141 20.0584 21.7352 21.084C21.2563 22.1096 21.1226 23.2627 21.3542 24.3707Z" fill="#FFE500" stroke="#45413C" stroke-linecap="round" stroke-linejoin="round"/>
<path d="M20.0985 28.9917C20.0985 30.2144 20.3393 31.425 20.8072 32.5546C21.2751 33.6842 21.9609 34.7106 22.8255 35.5751C23.69 36.4397 24.7164 37.1255 25.846 37.5934C26.9756 38.0613 28.1863 38.3021 29.4089 38.3021C30.6316 38.3021 31.8423 38.0613 32.9719 37.5934C34.1015 37.1255 35.1278 36.4397 35.9924 35.5751C36.8569 34.7106 37.5427 33.6842 38.0106 32.5546C38.4785 31.425 38.7193 30.2144 38.7193 28.9917C38.7193 26.5224 37.7384 24.1543 35.9924 22.4082C34.2463 20.6622 31.8782 19.6813 29.4089 19.6813C26.9397 19.6813 24.5715 20.6622 22.8255 22.4082C21.0794 24.1543 20.0985 26.5224 20.0985 28.9917Z" fill="#656769"/>
<path d="M29.4089 21.7911C31.6962 21.7911 33.9035 22.6332 35.6096 24.1566C37.3158 25.68 38.4014 27.7782 38.6596 30.0508C38.701 29.6993 38.721 29.3456 38.7193 28.9917C38.7571 27.7459 38.5443 26.5051 38.0936 25.3431C37.6429 24.181 36.9635 23.1213 36.0956 22.2267C35.2277 21.3321 34.1891 20.6209 33.0412 20.1352C31.8933 19.6496 30.6596 19.3993 29.4132 19.3993C28.1668 19.3993 26.9331 19.6496 25.7852 20.1352C24.6373 20.6209 23.5987 21.3321 22.7308 22.2267C21.8629 23.1213 21.1835 24.181 20.7328 25.3431C20.2821 26.5051 20.0693 27.7459 20.1071 28.9917C20.1054 29.3456 20.1254 29.6993 20.1668 30.0508C20.423 27.7789 21.5069 25.6808 23.2117 24.1573C24.9164 22.6337 27.1226 21.7914 29.4089 21.7911Z" fill="#87898C"/>
<path d="M20.0985 28.9917C20.0985 30.2144 20.3393 31.425 20.8072 32.5546C21.2751 33.6842 21.9609 34.7106 22.8255 35.5751C23.69 36.4397 24.7164 37.1255 25.846 37.5934C26.9756 38.0613 28.1863 38.3021 29.4089 38.3021C30.6316 38.3021 31.8423 38.0613 32.9719 37.5934C34.1015 37.1255 35.1278 36.4397 35.9924 35.5751C36.8569 34.7106 37.5427 33.6842 38.0106 32.5546C38.4785 31.425 38.7193 30.2144 38.7193 28.9917C38.7193 26.5224 37.7384 24.1543 35.9924 22.4082C34.2463 20.6622 31.8782 19.6813 29.4089 19.6813C26.9397 19.6813 24.5715 20.6622 22.8255 22.4082C21.0794 24.1543 20.0985 26.5224 20.0985 28.9917Z" stroke="#45413C" stroke-linecap="round" stroke-linejoin="round"/>
<path d="M24.6085 28.9917C24.6085 30.2649 25.1143 31.4859 26.0145 32.3861C26.9148 33.2864 28.1358 33.7921 29.4089 33.7921C30.6821 33.7921 31.9031 33.2864 32.8033 32.3861C33.7036 31.4859 34.2094 30.2649 34.2094 28.9917C34.2094 27.7186 33.7036 26.4975 32.8033 25.5973C31.9031 24.697 30.6821 24.1913 29.4089 24.1913C28.1358 24.1913 26.9148 24.697 26.0145 25.5973C25.1143 26.4975 24.6085 27.7186 24.6085 28.9917Z" fill="#FFE500"/>
<path d="M29.409 25.9167C30.5398 25.9087 31.6371 26.3002 32.5075 27.0222C33.3779 27.7441 33.9655 28.7502 34.1667 29.863C34.2203 29.5813 34.2489 29.2955 34.2521 29.0088C34.1998 27.7696 33.6708 26.5984 32.7754 25.7401C31.8801 24.8817 30.6877 24.4025 29.4474 24.4025C28.2071 24.4025 27.0147 24.8817 26.1194 25.7401C25.224 26.5984 24.695 27.7696 24.6427 29.0088C24.6459 29.2955 24.6745 29.5813 24.7281 29.863C24.9269 28.7631 25.5033 27.7672 26.3578 27.0468C27.2123 26.3264 28.2914 25.9267 29.409 25.9167Z" fill="#EBCB00"/>
<path d="M24.6085 28.9917C24.6085 30.2649 25.1143 31.4859 26.0145 32.3861C26.9148 33.2864 28.1358 33.7921 29.4089 33.7921C30.6821 33.7921 31.9031 33.2864 32.8033 32.3861C33.7036 31.4859 34.2094 30.2649 34.2094 28.9917C34.2094 27.7186 33.7036 26.4975 32.8033 25.5973C31.9031 24.697 30.6821 24.1913 29.4089 24.1913C28.1358 24.1913 26.9148 24.697 26.0145 25.5973C25.1143 26.4975 24.6085 27.7186 24.6085 28.9917Z" stroke="#45413C" stroke-linecap="round" stroke-linejoin="round"/>
<path d="M27.2992 28.9916C27.2992 29.2687 27.3538 29.543 27.4598 29.799C27.5658 30.055 27.7212 30.2876 27.9171 30.4835C28.113 30.6794 28.3456 30.8348 28.6016 30.9408C28.8576 31.0468 29.1319 31.1014 29.409 31.1014C29.686 31.1014 29.9604 31.0468 30.2164 30.9408C30.4723 30.8348 30.7049 30.6794 30.9008 30.4835C31.0967 30.2876 31.2522 30.055 31.3582 29.799C31.4642 29.543 31.5188 29.2687 31.5188 28.9916C31.5188 28.4321 31.2965 27.8954 30.9008 27.4998C30.5052 27.1041 29.9685 26.8818 29.409 26.8818C28.8494 26.8818 28.3128 27.1041 27.9171 27.4998C27.5215 27.8954 27.2992 28.4321 27.2992 28.9916Z" fill="#DAEDF7"/>
<path d="M29.409 28.3511C29.8403 28.3503 30.2614 28.4817 30.6157 28.7275C30.97 28.9734 31.2405 29.322 31.3907 29.7263C31.5094 29.4072 31.5491 29.0641 31.5064 28.7264C31.4638 28.3886 31.3401 28.0662 31.1458 27.7867C30.9515 27.5071 30.6925 27.2787 30.3908 27.121C30.0891 26.9632 29.7537 26.8809 29.4133 26.8809C29.0728 26.8809 28.7374 26.9632 28.4358 27.121C28.1341 27.2787 27.875 27.5071 27.6807 27.7867C27.4865 28.0662 27.3627 28.3886 27.3201 28.7264C27.2774 29.0641 27.3172 29.4072 27.4359 29.7263C27.5855 29.3233 27.8547 28.9757 28.2073 28.73C28.5599 28.4842 28.9792 28.352 29.409 28.3511Z" fill="#C0DCEB"/>
<path d="M27.2992 28.9916C27.2992 29.2687 27.3538 29.543 27.4598 29.799C27.5658 30.055 27.7212 30.2876 27.9171 30.4835C28.113 30.6794 28.3456 30.8348 28.6016 30.9408C28.8576 31.0468 29.1319 31.1014 29.409 31.1014C29.686 31.1014 29.9604 31.0468 30.2164 30.9408C30.4723 30.8348 30.7049 30.6794 30.9008 30.4835C31.0967 30.2876 31.2522 30.055 31.3582 29.799C31.4642 29.543 31.5188 29.2687 31.5188 28.9916C31.5188 28.4321 31.2965 27.8954 30.9008 27.4998C30.5052 27.1041 29.9685 26.8818 29.409 26.8818C28.8494 26.8818 28.3128 27.1041 27.9171 27.4998C27.5215 27.8954 27.2992 28.4321 27.2992 28.9916Z" stroke="#45413C" stroke-linecap="round" stroke-linejoin="round"/>
</svg>
